<svg width="60" height="60" viewBox="0 0 60 60" fill="none" xmlns="http://www.w3.org/2000/svg">
<circle cx="30" cy="30" r="30" fill="white"/>
<path fill-rule="evenodd" clip-rule="evenodd" d="M59.4544 35.7248C59.8125 33.8717 60 31.9577 60 30C60 13.4315 46.5685 0 30 0C23.02 0 16.5968 2.38376 11.5 6.38161V37.5H23.5V42H7L6.51321 11.3334C2.43613 16.4565 0 22.9438 0 30C0 46.5685 13.4315 60 30 60C42.0493 60 52.4396 52.8963 57.2111 42.6485C57.0807 42.8657 57 43 57 43V32.5L52.5 39L48 33V43H45V28H48L52.5 35L56 28H59L59.4544 35.7248ZM24.5 46.5L21 48.5C21 48.5 25.8819 53.0108 29.5 54C36.0896 55.8015 42 48.5 42.5 45C43 41.5 43.5 37 40 33.5C37.2386 30.7386 30.5 32.5 30.5 32.5L32.5 23.5H43.5V19H29.5L24.5 38.5L29 38C29 38 31.6174 35.0659 34 35C37.4752 34.9039 38.7523 37.5323 39 41C39.3154 45.4156 35.9252 50.3772 31.5 50.5C28.3527 50.5874 24.5 46.5 24.5 46.5Z" fill="#3D5293"/>
</svg>
